<?xml version="1.0"?>
<svg xmlns="http://www.w3.org/2000/svg" id="Layer_1" data-name="Layer 1" viewBox="0 0 512 512" width="512" height="512"><title>Coffee Sign</title><path d="M430.25,60.92a26.505,26.505,0,0,1,0,53.01H81.75a26.505,26.505,0,1,1,0-53.01Z" style="fill:#00acea"/><path d="M441,203.57V411.08a40,40,0,0,1-40,40H111a40,40,0,0,1-40-40V203.57a40,40,0,0,1,40-40h18.5v18.11a26.5,26.5,0,0,0,53,0V163.57h147v18.11a26.5,26.5,0,1,0,53,0V163.57H401A40,40,0,0,1,441,203.57ZM352.62,342.7V302.69a16.1,16.1,0,0,0-16.1-16.1H304.54V255.23H159.38V371.01a25.762,25.762,0,0,0,25.76,25.76h93.65a25.754,25.754,0,0,0,25.75-25.76V358.8h31.98A16.1,16.1,0,0,0,352.62,342.7Z" style="fill:#00efd1"/><path d="M382.5,163.57v18.11a26.5,26.5,0,1,1-53,0V113.93h53v49.64Z" style="fill:#fedb41"/><path d="M352.62,302.69V342.7a16.1,16.1,0,0,1-16.1,16.1H304.54V286.59h31.98A16.1,16.1,0,0,1,352.62,302.69Z" style="fill:#00efd1"/><path d="M304.54,358.8v12.21a25.754,25.754,0,0,1-25.75,25.76H185.14a25.762,25.762,0,0,1-25.76-25.76V255.23H304.54V358.8Z" style="fill:#fedb41"/><path d="M182.5,163.57v18.11a26.5,26.5,0,1,1-53,0V113.93h53v49.64Z" style="fill:#fedb41"/><path d="M430.25,53H81.75a34.5,34.5,0,1,0,0,69H121v34H111a47.689,47.689,0,0,0-48,47.57V411.08A47.986,47.986,0,0,0,111,459H401a47.986,47.986,0,0,0,48-47.92V203.57A47.689,47.689,0,0,0,401,156H390V122h40.25a34.5,34.5,0,1,0,0-69ZM174,122v59.68a18.309,18.309,0,0,1-18.25,18.5,18.7,18.7,0,0,1-13.208-5.417A18.5,18.5,0,0,1,137,181.68V122Zm147,34H190V122H321Zm80,16a31.671,31.671,0,0,1,32,31.57V411.08A31.968,31.968,0,0,1,401,443H111a31.968,31.968,0,0,1-32-31.92V203.57A31.671,31.671,0,0,1,111,172h10v9.68a34.525,34.525,0,0,0,10.359,24.4,34.025,34.025,0,0,0,24.266,10.1A34.432,34.432,0,0,0,190,181.68V172H321v9.68a34.525,34.525,0,0,0,10.359,24.4,34.025,34.025,0,0,0,24.266,10.1A34.432,34.432,0,0,0,390,181.68V172Zm-27,9.68a18.309,18.309,0,0,1-18.25,18.5,18.7,18.7,0,0,1-13.208-5.417A18.5,18.5,0,0,1,337,181.68V122h37Zm69.328-81.136A18.386,18.386,0,0,1,430.25,106H81.75a18.556,18.556,0,0,1-18.5-18.545A18.456,18.456,0,0,1,81.75,69h348.5a18.471,18.471,0,0,1,13.078,31.544Z" style="fill:#083863"/><path d="M336.52,279H313V255.23a8.6,8.6,0,0,0-8.46-8.23H159.38a8.531,8.531,0,0,0-8.38,8.23V371.01A34.323,34.323,0,0,0,185.14,405h93.65C297.4,405,313,389.625,313,371.01V367h23.52A24.626,24.626,0,0,0,361,342.7V302.69C361,289.4,349.809,279,336.52,279ZM297,371.01c0,9.793-8.422,17.99-18.21,17.99H185.14A18.306,18.306,0,0,1,167,371.01V263H297Zm48-28.31a8.615,8.615,0,0,1-8.48,8.3H313V295h23.52c4.466,0,8.48,3.224,8.48,7.69Z" style="fill:#083863"/></svg>
